<?xml version="1.0" encoding="UTF-8" standalone="no"?>
<!DOCTYPE svg PUBLIC "-//W3C//DTD SVG 1.1//EN" "http://www.w3.org/Graphics/SVG/1.1/DTD/svg11.dtd">
<svg width="100%" height="100%" viewBox="0 0 650 220" version="1.1" xmlns="http://www.w3.org/2000/svg" xmlns:xlink="http://www.w3.org/1999/xlink" xml:space="preserve" style="fill-rule:evenodd;clip-rule:evenodd;stroke-linecap:round;stroke-linejoin:round;stroke-miterlimit:1.41421;">
    <g id="n-missing">
        <g transform="matrix(1,0,0,1,447.763,-60.2432)">
            <text x="61.135px" y="128.132px" style="font-family:'ArialMT', 'Arial', sans-serif;font-size:12px;fill:black;">3</text>
        </g>
        <g transform="matrix(1,0,0,1,447.763,-98.3753)">
            <text x="61.135px" y="128.132px" style="font-family:'ArialMT', 'Arial', sans-serif;font-size:12px;fill:black;">.get_number_missing(...)</text>
        </g>
        <g transform="matrix(1,0,0,1,196.038,-98.3753)">
            <text x="61.135px" y="128.132px" style="font-family:'ArialMT', 'Arial', sans-serif;font-size:12px;fill:black;">.get_data(...)</text>
        </g>
        <g transform="matrix(1,0,0,1,113.882,-98.3753)">
            <text x="61.135px" y="128.132px" style="font-family:'ArialMT', 'Arial', sans-serif;font-size:12px;fill:black;">V<tspan x="68.248px 74.922px " y="128.132px 128.132px ">ar</tspan>iable type</text>
        </g>
        <g transform="matrix(1,0,0,1,-31.528,-98.3753)">
            <text x="61.135px" y="128.132px" style="font-family:'ArialMT', 'Arial', sans-serif;font-size:12px;fill:black;">V<tspan x="68.248px 74.922px " y="128.132px 128.132px ">ar</tspan>iable structure</text>
            <text x="61.135px" y="140.525px" style="font-family:'ArialMT', 'Arial', sans-serif;font-size:12px;fill:black;">(using the parent ﬁeld)</text>
        </g>
        <g transform="matrix(1,0,0,1,459.413,6.47515)">
            <text x="49.485px" y="89.83px" style="font-family:'ArialMT', 'Arial', sans-serif;font-size:12px;fill:black;">3</text>
        </g>
        <g transform="matrix(1,0,0,1,459.413,33.6654)">
            <text x="49.485px" y="89.83px" style="font-family:'ArialMT', 'Arial', sans-serif;font-size:12px;fill:black;">4</text>
        </g>
        <g transform="matrix(1,0,0,1,459.413,50.3654)">
            <text x="49.485px" y="89.83px" style="font-family:'ArialMT', 'Arial', sans-serif;font-size:12px;fill:black;">3</text>
        </g>
        <g transform="matrix(1,0,0,1,459.413,66.6654)">
            <text x="49.485px" y="89.83px" style="font-family:'ArialMT', 'Arial', sans-serif;font-size:12px;fill:black;">3</text>
        </g>
        <g transform="matrix(1,0,0,1,459.413,93.8654)">
            <text x="49.485px" y="89.83px" style="font-family:'ArialMT', 'Arial', sans-serif;font-size:12px;fill:black;">3</text>
        </g>
    </g>
    <g id="Vector-representation">
        <g transform="matrix(1,0,0,1,-15.0395,20.6997)">
            <g transform="matrix(1,0,0,1,209.751,-80.9429)">
                <text x="61.135px" y="128.132px" style="font-family:'CourierNewPSMT', 'Courier New', monospace;font-size:12px;fill:black;">0 0 1 0 1 1 N 1 0 N 0 1 1 1 1 N 0</text>
            </g>
            <g transform="matrix(1,0,0,1,221.402,-14.2246)">
                <text x="49.485px" y="89.83px" style="font-family:'CourierNewPSMT', 'Courier New', monospace;font-size:12px;fill:black;">0 0 1 0 0 1 N 1 0 N 0 1 0 1 1 N 0</text>
            </g>
            <g transform="matrix(1,0,0,1,221.402,12.9657)">
                <text x="49.485px" y="89.83px" style="font-family:'CourierNewPSMT', 'Courier New', monospace;font-size:12px;fill:black;">0 0 0 0 0 1 N 0 0 N 0 0 0 N 0 N 0</text>
            </g>
            <g transform="matrix(1,0,0,1,221.402,29.6657)">
                <text x="49.485px" y="89.83px" style="font-family:'CourierNewPSMT', 'Courier New', monospace;font-size:12px;fill:black;">0 0 0 0 0 0 N 1 0 N 0 0 0 0 0 N 0</text>
            </g>
            <g transform="matrix(1,0,0,1,221.402,45.9657)">
                <text x="49.485px" y="89.83px" style="font-family:'CourierNewPSMT', 'Courier New', monospace;font-size:12px;fill:black;">0 0 0 0 0 0 N 0 0 N 0 1 0 0 0 N 0</text>
            </g>
            <g transform="matrix(1,0,0,1,221.402,73.1657)">
                <text x="49.485px" y="89.83px" style="font-family:'CourierNewPSMT', 'Courier New', monospace;font-size:12px;fill:black;">N N 3 N 5 4 N 2 N N N 3 2 1 8 N N</text>
            </g>
        </g>
        <g transform="matrix(1,0,0,1,-25.9848,16.5704)">
            <text x="50.336px" y="195.949px" style="font-family:'ArialMT', 'Arial', sans-serif;font-size:9.222px;fill:black;">* Because they are mutually exclusive, these variables could be merged into a single Factor variable.</text>
        </g>
    </g>
    <g transform="matrix(1,0,0,1,-7.65655,20.6997)">
        <g id="Types">
            <g>
                <g transform="matrix(1,0,0,1,126.07,-80.9429)">
                    <text x="61.135px" y="128.132px" style="font-family:'ArialMT', 'Arial', sans-serif;font-size:12px;fill:black;">Discrete</text>
                </g>
                <g transform="matrix(1,0,0,1,137.721,-14.2246)">
                    <text x="49.485px" y="89.83px" style="font-family:'ArialMT', 'Arial', sans-serif;font-size:12px;fill:black;">Discrete</text>
                </g>
                <g transform="matrix(1,0,0,1,137.721,12.9657)">
                    <text x="49.485px" y="89.83px" style="font-family:'ArialMT', 'Arial', sans-serif;font-size:12px;fill:black;">Discrete*</text>
                </g>
                <g transform="matrix(1,0,0,1,137.721,29.6657)">
                    <text x="49.485px" y="89.83px" style="font-family:'ArialMT', 'Arial', sans-serif;font-size:12px;fill:black;">Discrete*</text>
                </g>
                <g transform="matrix(1,0,0,1,137.721,45.9657)">
                    <text x="49.485px" y="89.83px" style="font-family:'ArialMT', 'Arial', sans-serif;font-size:12px;fill:black;">Discrete*</text>
                </g>
                <g transform="matrix(1,0,0,1,137.721,73.1657)">
                    <text x="49.485px" y="89.83px" style="font-family:'ArialMT', 'Arial', sans-serif;font-size:12px;fill:black;">Continuous</text>
                </g>
            </g>
        </g>
    </g>
    <g id="Boxes">
        <g transform="matrix(1,0,0,1,0,20.6997)">
            <g transform="matrix(1,0,0,1,1.32353,-1.03954)">
                <rect x="24.076" y="34.923" width="115.001" height="19.568" style="fill:rgb(232,134,64);stroke-width:1px;stroke:rgb(71,71,71);"/>
            </g>
            <g transform="matrix(1,0,0,1,-33.238,-80.9429)">
                <text x="61.135px" y="128.132px" style="font-family:'ArialMT', 'Arial', sans-serif;font-size:12px;fill:black;">History of arrhythmi</text>
                <text x="165.157px" y="128.132px" style="font-family:'ArialMT', 'Arial', sans-serif;font-size:12px;fill:black;">a</text>
            </g>
        </g>
        <g transform="matrix(1,0,0,1,6.91583,20.6997)">
            <g transform="matrix(0.788535,0,0,1,17.1805,26.5489)">
                <rect x="24.076" y="34.923" width="115.001" height="19.568" style="fill:rgb(64,138,232);stroke-width:1.11px;stroke:rgb(71,71,71);"/>
            </g>
            <g transform="matrix(1,0,0,1,-8.51963,-14.2246)">
                <text x="49.485px" y="89.83px" style="font-family:'ArialMT', 'Arial', sans-serif;font-size:12px;fill:black;">Atrial ﬁbrillation</text>
            </g>
        </g>
        <g transform="matrix(1,0,0,1,0,20.6997)">
            <g transform="matrix(0.855588,0,0,0.778513,44.5843,64.1992)">
                <rect x="24.076" y="34.923" width="115.001" height="19.568" style="fill:rgb(94,213,145);stroke-width:1.22px;stroke:rgb(71,71,71);"/>
            </g>
            <g transform="matrix(0.855588,0,0,0.778513,44.5843,80.9826)">
                <rect x="24.076" y="34.923" width="115.001" height="19.568" style="fill:rgb(94,213,145);stroke-width:1.22px;stroke:rgb(71,71,71);"/>
            </g>
            <g transform="matrix(0.855588,0,0,0.778513,44.5843,97.9658)">
                <rect x="24.076" y="34.923" width="115.001" height="19.568" style="fill:rgb(94,213,145);stroke-width:1.22px;stroke:rgb(71,71,71);"/>
            </g>
            <g transform="matrix(1,0,0,1,-112.882,-10.1337)">
                <text x="180.881px" y="112.946px" style="font-family:'ArialMT', 'Arial', sans-serif;font-size:12px;fill:black;">I48.0 Paroxysmal</text>
            </g>
            <g transform="matrix(1,0,0,1,-112.882,6.5502)">
                <text x="180.881px" y="112.946px" style="font-family:'ArialMT', 'Arial', sans-serif;font-size:12px;fill:black;">I48.1 Persistent</text>
            </g>
            <g transform="matrix(1,0,0,1,-112.882,22.854)">
                <text x="180.881px" y="112.946px" style="font-family:'ArialMT', 'Arial', sans-serif;font-size:12px;fill:black;">I48.2 Chronic</text>
            </g>
        </g>
        <g transform="matrix(1,0,0,1,6.91583,20.6997)">
            <g transform="matrix(0.872471,0,0,1,15.1596,114.401)">
                <rect x="24.076" y="34.923" width="115.001" height="19.568" style="fill:rgb(64,138,232);stroke-width:1.07px;stroke:rgb(71,71,71);"/>
            </g>
            <g transform="matrix(1,0,0,1,18.8006,55.5618)">
                <text x="21.906px" y="107.434px" style="font-family:'ArialMT', 'Arial', sans-serif;font-size:12px;fill:black;">T<tspan x="28.791px 31.457px " y="107.434px 107.434px ">im</tspan>e since event</text>
            </g>
        </g>
        <g transform="matrix(1,0,0,1,0,20.896)">
            <path d="M65.238,115.423L51.167,115.423" style="fill:none;stroke-width:1px;stroke-linecap:butt;stroke:rgb(71,71,71);"/>
        </g>
        <g transform="matrix(1,0,0,1,0,38.0645)">
            <path d="M65.238,115.423L51.167,115.423" style="fill:none;stroke-width:1px;stroke-linecap:butt;stroke:rgb(71,71,71);"/>
        </g>
    </g>
    <g id="Edges">
        <g transform="matrix(1.28362,0,0,1.31104,-9.28454,-26.6413)">
            <path d="M32.736,77.141L32.736,158.256" style="fill:none;stroke-width:0.77px;stroke-linecap:butt;stroke:rgb(71,71,71);"/>
        </g>
        <g transform="matrix(1,0,0,1,0,24.696)">
            <path d="M32.799,67.562L43.045,67.562" style="fill:none;stroke-width:1px;stroke-linecap:butt;stroke:rgb(71,71,71);"/>
        </g>
        <g transform="matrix(1.05491,0,0,1.05491,-2.36349,109.071)">
            <path d="M32.799,67.562L43.045,67.562" style="fill:none;stroke-width:0.95px;stroke-linecap:butt;stroke:rgb(71,71,71);"/>
        </g>
        <g transform="matrix(0.997625,0,0,0.997723,0.121284,20.8843)">
            <path d="M51.07,81.088L51.07,133.407" style="fill:none;stroke-width:1px;stroke-linecap:butt;stroke:rgb(71,71,71);"/>
        </g>
        <g transform="matrix(1,0,0,1,0,21.1256)">
            <path d="M51.08,98.215L65.118,98.215" style="fill:none;stroke-width:1px;stroke-linecap:butt;stroke:rgb(71,71,71);"/>
        </g>
    </g>
    <g id="Separators">
        <g transform="matrix(1,0,0,1.09904,0.171822,-18.239)">
            <path d="M169.534,21.898L169.534,194.948" style="fill:none;stroke-width:0.95px;stroke-linecap:butt;stroke-dasharray:0.95,0.95;stroke:rgb(71,71,71);"/>
        </g>
        <g transform="matrix(1,0,0,1.09904,79.6935,-18.239)">
            <path d="M169.534,21.898L169.534,194.948" style="fill:none;stroke-width:0.95px;stroke-linecap:butt;stroke-dasharray:0.95,0.95;stroke:rgb(71,71,71);"/>
        </g>
        <g transform="matrix(1,0,0,1.09904,330.697,-18.239)">
            <path d="M169.534,21.898L169.534,194.948" style="fill:none;stroke-width:0.95px;stroke-linecap:butt;stroke-dasharray:0.95,0.95;stroke:rgb(71,71,71);"/>
        </g>
        <g transform="matrix(1,0,0,1,-1,-125.345)">
            <path d="M10.746,172.567L647.99,172.567" style="fill:none;stroke-width:1px;stroke-linecap:butt;stroke-dasharray:1,1;stroke:rgb(71,71,71);"/>
        </g>
    </g>
</svg>
